<svg xmlns="http://www.w3.org/2000/svg" viewBox="0 0 36 36"><path d="M18 0C8.1 0 0 8.1 0 18s8.1 18 18 18 18-8.1 18-18S27.9 0 18 0zm8.9 14c-.1.4-.2.7-.4 1-.5.9-1.1 1.7-1.8 2.5-.2.3-.5.6-.6.9-.1.4 0 .7.2 1l1.5 1.5c.3.3.5.6.8 1 .2.2.3.5.2.7a.47.47 0 0 1-.5.5c-.6 0-1.2.1-1.8.1h-1.1c-.3 0-.5-.1-.8-.2-.4-.2-.7-.5-1-.8s-.6-.6-.9-1c-.2-.2-.6-.4-.9-.3-.2.1-.3.2-.3.5s-.1.7-.1 1c0 .4-.3.7-.7.8-.8.1-1.7.1-2.5-.1-.6-.1-1.1-.4-1.6-.8-.7-.5-1.3-1.1-1.8-1.7-.3-.3-.5-.7-.8-1-.8-1.1-1.5-2.3-2.2-3.5-.3-.6-.6-1.2-.8-1.8 0-.1-.1-.3-.1-.4s0-.1.1-.1c.2-.1.4-.1.5-.1h2.4c.3 0 .6.1.7.4s.3.6.4.8c.5 1 1 2 1.7 2.9.1.1.3.2.4.3.2.1.3 0 .4-.1.1-.2.2-.4.2-.7v-2a1.41 1.41 0 0 0-1-1.4h-.1c.1-.2.2-.4.4-.4.4-.2.8-.2 1.2-.2.6 0 1.1 0 1.7.1.3 0 .5 0 .8.1.4.1.6.4.6.8v.9c0 .7-.1 1.3-.1 2 0 .2.1.4.1.6 0 .1.1.1.1.2.1.2.2.2.4.1.4-.2.6-.5.9-.9l.9-1.5c.2-.5.5-1 .7-1.6.1-.3.3-.4.6-.4h3.2c.7-.4.9-.1.8.3z" fill="#4a74a5"/></svg>