<?xml version="1.0" encoding="UTF-8"?>
<svg width="32px" height="14px" viewBox="0 0 32 14" version="1.1" xmlns="http://www.w3.org/2000/svg" xmlns:xlink="http://www.w3.org/1999/xlink">
    <!-- Generator: Sketch 58 (84663) - https://sketch.com -->
    <title>Shape</title>
    <desc>Created with Sketch.</desc>
    <g id="Page-1" stroke="none" stroke-width="1" fill="none" fill-rule="evenodd">
        <g id="Artboard-Copy-46" transform="translate(-125.000000, -498.000000)" fill="#000000" fill-rule="nonzero">
            <g id="infinity-(1)" transform="translate(125.000000, 498.000000)">
                <path d="M25.1358661,0.0356820084 C21.5654561,0.0356820084 17.7093891,3.494159 15.9955816,5.22624268 C14.2817741,3.494159 10.4257071,0.0356820084 6.85529707,0.0356820084 C2.56281172,0.0356820084 6.69456067e-05,2.59842678 6.69456067e-05,6.89091213 C6.69456067e-05,11.1833975 2.56281172,13.7461423 6.85529707,13.7461423 C10.4257071,13.7461423 14.2817741,10.2876653 15.9955816,8.55558159 C17.7093891,10.2876653 21.5654561,13.7461423 25.1358661,13.7461423 C29.4284184,13.7461423 31.9910962,11.1833975 31.9910962,6.89091213 C31.9910962,2.59842678 29.4283515,0.0356820084 25.1358661,0.0356820084 Z M6.85523013,11.4610879 C3.82292887,11.4610879 2.28505439,9.92321339 2.28505439,6.89091213 C2.28505439,3.85861088 3.82292887,2.3207364 6.85523013,2.3207364 C9.36883682,2.3207364 12.7050042,5.15307113 14.4279833,6.89091213 C12.7084854,8.63102929 9.3790795,11.4610879 6.85523013,11.4610879 Z M25.1358661,11.4610879 C22.6222594,11.4610879 19.2860921,8.62875314 17.563113,6.89091213 C19.2769205,5.152 22.6120167,2.3207364 25.1358661,2.3207364 C28.1681674,2.3207364 29.7060418,3.85861088 29.7060418,6.89091213 C29.7060418,9.92321339 28.1681674,11.4610879 25.1358661,11.4610879 Z" id="Shape"></path>
            </g>
        </g>
    </g>
</svg>