<?xml version="1.0" encoding="UTF-8"?>
<svg width="21px" height="24px" viewBox="0 0 21 24" version="1.1" xmlns="http://www.w3.org/2000/svg" xmlns:xlink="http://www.w3.org/1999/xlink">
    <title>flame</title>
    <g id="flame" stroke="none" stroke-width="1" fill="none" fill-rule="evenodd">
        <g id="fire" transform="translate(1.500000, 0.500000)" stroke="#000000" stroke-width="2">
            <path d="M10.8557009,21.0812572 C11.5972581,19.5154412 12.4809524,16.8491991 11.2464649,15.6994819 C10.108548,15.8798899 9.18839749,15.8809875 8.43972543,15.703533 C6.55449533,15.2566278 5.95775639,13.6797123 6.47679016,11.6602805 C3.94033965,14.107459 3.83325495,17.715833 4.7735517,21.1904728 C4.92628431,21.754908 4.32786659,22.2172173 3.86447365,21.8910894 C3.70666479,21.7800173 0,19.1241138 0,15.0342719 C0,8.33410349 7.19492334,8.04582946 7.19492334,1.02362724 C7.19492334,0.487213417 16.2866271,9.20575896 15.9930397,14.8352529 C15.8475009,17.6260726 14.4113525,20 11.724528,21.8910894 C11.2163266,22.2486563 10.5817344,21.6597032 10.8557009,21.0812572 Z" id="Path"></path>
        </g>
    </g>
</svg>