<?xml version="1.0" encoding="utf-8"?>
<!-- Generator: Adobe Illustrator 24.2.3, SVG Export Plug-In . SVG Version: 6.00 Build 0)  -->
<svg version="1.1" id="Layer_1" xmlns="http://www.w3.org/2000/svg" xmlns:xlink="http://www.w3.org/1999/xlink" x="0px" y="0px"
	 viewBox="0 0 25 25" style="enable-background:new 0 0 25 25;" xml:space="preserve">
<style type="text/css">
	.st0{fill:none;stroke:#282828;stroke-miterlimit:10;}
	.st1{fill:#282828;}
</style>
<path class="st0" d="M12.8,17.8c0.9,0.4,1.9,0.7,2.9,0.9c0.2,0,0.3,0.1,0.3,0.3c0.1,0.3,0.1,0.6,0.1,0.9c0,0.7-0.1,1.2-0.1,1.2
	s5.5-2.6,7.3-5.6c0.4-0.8,0.6-1.7,0.6-2.7c0-3.3-3.3-5.9-7.3-5.9c-0.2,0-0.4,0-0.6,0"/>
<g>
	<g>
		<path class="st0" d="M12.8,4.5C9.1,2.9,4.7,4.5,3.2,8c-0.9,2-0.7,4.2,0.3,6.1l-1.1,2.6l3.1-0.3c0.5,0.4,1.1,0.8,1.8,1.1
			c3.7,1.6,8.1,0,9.6-3.5C18.3,10.4,16.6,6.1,12.8,4.5z"/>
	</g>
	<path class="st1" d="M11.6,12.5c-0.4,0.4-0.9,0.9-1.4,0.8c-0.4,0-1.1-0.6-1.6-1.2c-0.4-0.6-0.8-1.5-0.7-1.8C8,9.8,8.6,9.4,9.1,9.1
		L7.8,7.2c0,0-0.5,0.3-0.9,0.7C5.7,9.1,6,11.3,7.4,13.1s3.4,2.7,4.8,1.8c0.5-0.3,0.9-0.7,0.9-0.7L11.6,12.5z"/>
</g>
</svg>
