<svg xmlns="http://www.w3.org/2000/svg" viewBox="0 0 90 90"><style><![CDATA[.A{fill:#F99400}]]></style><path class="A" d="M44.9 39.5c2.5 0 4.4-1.9 4.4-4.4 0-2.4-1.9-4.4-4.3-4.4s-4.4 1.9-4.4 4.3c0 2.5 2 4.5 4.3 4.5zM45 0C20.1 0 0 20.1 0 45s20.1 45 45 45 45-20.1 45-45S69.9 0 45 0zm0 24.6a10.5 10.5 0 1 1 0 21c-5.9 0-10.5-4.7-10.6-10.5 0-5.8 4.7-10.5 10.6-10.5zm4.5 29.9l5.6 5.6c1.1 1.1 1.3 2.6.6 3.8-1 1.8-3.4 2.1-4.9.6L45 58.7c-.1.1-.1.2-.2.3-1.8 1.9-3.7 3.7-5.5 5.5-1.3 1.3-3.2 1.3-4.4 0-1.1-1.2-1.2-3-.1-4.2.1-.2.3-.3.5-.5l5.5-5.5c-1.6-.4-3.1-.9-4.6-1.7l-1.5-.9c-1.5-.9-1.9-2.8-1-4.2.9-1.5 2.8-2 4.2-1.1 1.5.9 3 1.5 4.7 1.8 3.3.6 6.4 0 9.3-1.7.6-.3 1.2-.6 1.9-.6a3.12 3.12 0 0 1 3 2.2c.4 1.3-.1 2.7-1.3 3.5-1.8 1.2-3.8 2-5.9 2.5-.1 0-.2 0-.3.1.1.2.1.2.2.3z"/></svg>