<?xml version="1.0" encoding="utf-8"?>
<!-- Generator: Adobe Illustrator 25.2.3, SVG Export Plug-In . SVG Version: 6.00 Build 0)  -->
<svg version="1.1" id="Layer_1" xmlns="http://www.w3.org/2000/svg" xmlns:xlink="http://www.w3.org/1999/xlink" x="0px" y="0px"
	 viewBox="0 0 25 25" style="enable-background:new 0 0 25 25;" xml:space="preserve">
<style type="text/css">
	.st0{fill:none;stroke:#282828;stroke-miterlimit:10;}
</style>
<desc>Created with Sketch.</desc>
<g>
	<path class="st0" d="M12.5,15.5c-1.2,0-4.5-2.4-4.5-5c0-1.2,1-2.2,2.2-2.2c1.2,0,2.2,1,2.2,2.2"/>
	<path class="st0" d="M12.5,15.5c1.2,0,4.3-2.4,4.3-5c0-1.2-1-2.2-2.1-2.2c-1.2,0-2.1,1-2.1,2.2"/>
</g>
<path class="st0" d="M20.4,5.1H4.6c-0.7,0-1.2,0.6-1.2,1.2v10.2c0,0.7,0.6,1.2,1.2,1.2h5.3l2.7,2.9l2.7-2.9h5.3
	c0.7,0,1.2-0.6,1.2-1.2V6.3C21.7,5.6,21.1,5.1,20.4,5.1z"/>
</svg>
