<?xml version="1.0" encoding="UTF-8"?>
<svg width="150px" height="150px" viewBox="0 0 150 150" version="1.1" xmlns="http://www.w3.org/2000/svg" xmlns:xlink="http://www.w3.org/1999/xlink">
    <title>telegram_150x150</title>
    <g id="telegram_150x150" stroke="none" stroke-width="1" fill="none" fill-rule="evenodd">
        <g id="Telegram_2019_simple_logo" fill-rule="nonzero">
            <g id="Layer_2" fill="#4EA4F6">
                <circle id="circle2" cx="74.1428571" cy="74.1428571" r="74.1428571"></circle>
            </g>
            <g id="Layer_3" transform="translate(26.000000, 43.000000)" fill="#FFFFFF">
                <path d="M5.16,30.7666667 C5.16,30.7666667 42.355,15.4909091 55.255,10.1121212 C60.2,7.96060606 76.97,1.07575758 76.97,1.07575758 C76.97,1.07575758 84.71,-1.93636364 84.065,5.37878788 C83.85,8.39090909 82.13,18.9333333 80.41,30.3363636 C77.83,46.4727273 75.035,64.1151515 75.035,64.1151515 C75.035,64.1151515 74.605,69.0636364 70.95,69.9242424 C67.295,70.7848485 61.275,66.9121212 60.2,66.0515152 C59.34,65.4060606 44.075,55.7242424 38.485,50.9909091 C36.98,49.7 35.26,47.1181818 38.7,44.1060606 C46.44,37.0060606 55.685,28.1848485 61.275,22.5909091 C63.855,20.0090909 66.435,13.9848485 55.685,21.3 C40.42,31.8424242 25.37,41.7393939 25.37,41.7393939 C25.37,41.7393939 21.93,43.8909091 15.48,41.9545455 C9.03,40.0181818 1.505,37.4363636 1.505,37.4363636 C1.505,37.4363636 -3.655,34.2090909 5.16,30.7666667 Z" id="path5"></path>
            </g>
        </g>
    </g>
</svg>