<?xml version="1.0" encoding="utf-8"?>
<!-- Generator: Adobe Illustrator 17.0.1, SVG Export Plug-In . SVG Version: 6.00 Build 0)  -->
<!DOCTYPE svg PUBLIC "-//W3C//DTD SVG 1.1//EN" "http://www.w3.org/Graphics/SVG/1.1/DTD/svg11.dtd">
<svg version="1.1" id="Layer_1" xmlns="http://www.w3.org/2000/svg" xmlns:xlink="http://www.w3.org/1999/xlink" x="0px" y="0px"
	 viewBox="0 0 325.103 51.024" enable-background="new 0 0 325.103 51.024"
	 xml:space="preserve">
<g>
	<g>
		<path fill="#fff" d="M98.532,20.952v-3.806c0-2.741-1.903-4.949-7.08-4.949H64.273v4.187c0,3.045,2.437,4.568,6.624,4.568
			c1.218,0,5.177,0,5.177,0v20.632c0,3.882,0.913,9.06,8.222,9.06c7.233,0,7.537-4.492,7.537-5.862
			c-1.827,0-3.198-0.076-3.807-0.685c-0.914-0.914-0.914-2.817-0.914-3.959V20.952H98.532z"/>
		<path fill="#fff" d="M244.24,20.952v-3.806c0-2.741-1.902-4.949-7.08-4.949h-25.977v4.187c0,3.045,2.437,4.568,6.624,4.568
			c1.218,0,4.575,0,4.575,0v20.632c0,3.882,0.914,9.06,8.223,9.06c7.232,0,7.537-4.492,7.537-5.862
			c-1.828,0-3.197-0.076-3.807-0.685c-0.914-0.914-0.914-2.817-0.914-3.959V20.952H244.24z"/>
		<path fill="#fff" d="M121.191,42.649c7.156,0,10.277-3.426,10.277-3.426s2.741,0.152,2.741,3.274
			c0,3.045-4.492,8.526-14.693,8.526c-11.648,0-20.403-7.766-20.403-20.099c0-12.638,8.222-19.489,19.109-19.489
			c11.572,0,17.662,7.765,17.662,17.814c0,3.046-0.837,5.405-3.35,5.405h-22.611c0,0,0,0.152,0,0.305
			C109.923,37.547,112.359,42.649,121.191,42.649L121.191,42.649z M125.911,27.422c0,0-0.076-7.613-7.461-7.613
			c-7.842,0-8.146,7.613-8.146,7.613H125.911z"/>
		<path fill="#fff" d="M196.646,42.649c7.156,0,10.277-3.426,10.277-3.426s2.74,0.152,2.74,3.274
			c0,3.045-4.491,8.526-14.693,8.526c-11.647,0-20.402-7.766-20.402-20.099c0-12.638,8.223-19.489,19.109-19.489
			c11.571,0,17.662,7.765,17.662,17.814c0,3.046-0.838,5.405-3.35,5.405h-22.611c0,0,0,0.152,0,0.305
			C185.378,37.547,187.814,42.649,196.646,42.649L196.646,42.649z M201.847,27.422c0,0-0.076-7.613-7.461-7.613
			c-7.842,0-8.146,7.613-8.146,7.613H201.847z"/>
		<g>
			<path fill="#fff" d="M322.343,42.497V12.198c0,0-1.05-0.001-4.477-0.001l-0.913,0.001c-2.436,0-3.427,1.366-3.96,2.432
				l-9.518,20.406c0,0-2.26,4.949-3.885,4.949c-1.352,0-1.275-1.582-1.275-2.894V16.99c0-2.741-0.914-4.792-4.188-4.792l-0.99-0.001
				c-3.502,0-5.863,0.001-5.863,0.001v29.081c0,5.178,2.818,9.365,9.061,9.365c4.925,0,8.984-2.543,11.973-8.745l3.013-5.985v6.632
				c0,4.864,2.847,8.099,7.603,8.099c3.502,0,6.18-1.827,6.18-4.188C323.199,46.457,322.343,44.645,322.343,42.497z"/>
			<path fill="#fff" d="M307.372,3.448c0,0-0.491-3.448-4.901-3.448c-5.297,0-5.149,4.196-5.149,4.196
				c0,4.607,3.966,6.912,9.065,6.912c5.512,0,7.977-2.965,7.977-5.902C310.353,5.206,307.372,5.185,307.372,3.448z"/>
		</g>
		<path fill="#fff" d="M176.087,44.781c-3.502,0-4.72-2.36-5.557-4.491l-7.085-28.081h-8.157c-4.491,0-6.134,1.13-7.733,5.545
			L140.36,40.29c-1.13,3.069-2.75,4.491-5.02,4.491c0,2.056,0.681,5.862,5.858,5.862c6.353,0,7.09-5.959,8.222-8.983l6.197-21.028
			l5.293,21.713c1.142,3.807,1.52,8.299,8.448,8.299C173.469,50.643,176.087,46.836,176.087,44.781z"/>
		<path fill="#fff" d="M281.8,43.868c-0.989-0.99-1.065-2.741-1.065-3.807V27.923c0-10.595-7.439-16.447-18.139-16.447
			c-7.734,0-15.488,2.999-15.488,8.643c0,4.975,5.509,4.659,5.509,4.659s2.371-5.392,9.551-5.392c4.801,0,7.594,2.51,7.594,7.681
			l-5.09,0.073c-11.82,0-19.31,4.618-19.31,12.527c0,7.314,6.074,11.357,13.914,11.357c7.401,0,11.639-4.248,11.867-5.467
			c0.686,2.74,2.741,5.086,7.156,5.086c6.699,0,7.537-4.34,7.537-5.862C283.932,44.781,282.562,44.628,281.8,43.868z
			 M261.072,43.505c-2.943,0-5.144-1.554-5.144-4.352c0-3.979,4.946-5.104,8.383-5.104h5.522v1.544
			C269.832,39.698,265.695,43.505,261.072,43.505z"/>
	</g>
	<circle fill="#fff" cx="43.357" cy="44.051" r="6.723"/>
	<circle fill="#fff" cx="6.722" cy="44.102" r="6.722"/>
	<path fill="#fff" d="M50.028,11.727c0-4.115-2.998-6.695-6.695-6.695c-3.534,0-6.75,2.374-6.75,6.917v13.885
		c0,4.672,3.006,7.567,6.75,7.567c3.698,0,6.695-2.689,6.695-6.796C50.028,24.94,50.028,13.054,50.028,11.727z"/>
	<path fill="#fff" d="M31.673,31.545c0-4.133-3.01-6.724-6.724-6.724c-3.549,0-6.709,2.384-6.709,6.947l-0.011,11.516
		c0,4.691,2.961,7.6,6.721,7.6c3.714,0,6.724-2.701,6.724-6.825C31.673,42.386,31.673,32.877,31.673,31.545z"/>
</g>
</svg>
