<svg xmlns="http://www.w3.org/2000/svg" viewBox="0 0 60 60"><style><![CDATA[.A{fill:#57BB63}]]></style><path class="A" d="M30.1 16.4c-7.6 0-13.7 6.1-13.7 13.6 0 3 1 5.7 2.6 8l-1.7 5.1 5.3-1.7c2.2 1.4 4.8 2.3 7.5 2.3 7.6 0 13.7-6.1 13.7-13.6 0-7.6-6.2-13.7-13.7-13.7zm8 19.2c-.3.9-2 1.8-2.7 1.9s-.7.6-4.8-1-6.6-5.7-6.8-6-1.6-2.2-1.6-4.1c0-2 1-2.9 1.4-3.3s.8-.5 1.1-.5h.8c.2 0 .6-.1.9.7s1.1 2.7 1.2 2.9.2.4 0 .7c-.1.3-.2.4-.4.7-.2.2-.4.5-.6.7s-.4.4-.2.8a9.72 9.72 0 0 0 2.2 2.7c1.5 1.4 2.8 1.8 3.2 2s.6.2.9-.1c.2-.3 1-1.2 1.3-1.6s.5-.3.9-.2 2.3 1.1 2.7 1.3.7.3.8.5c0 .2 0 1-.3 1.9zM30 0C13.4 0 0 13.4 0 30s13.4 30 30 30 30-13.4 30-30S46.6 0 30 0zm.1 46.2a16.26 16.26 0 0 1-7.9-2l-9 2.9 2.9-8.7c-1.5-2.4-2.3-5.3-2.3-8.4 0-8.9 7.3-16.2 16.3-16.2S46.4 21 46.4 30s-7.3 16.2-16.3 16.2z"/></svg>